<svg width="19" height="19" viewBox="0 0 19 19" fill="none" xmlns="http://www.w3.org/2000/svg">
<rect x="2.28937" y="4.57874" width="13.7362" height="11.4468" rx="2" stroke="#9F9F9F"/>
<path d="M2.28937 7.63122C2.28937 6.65003 2.28937 6.15944 2.45777 5.77545C2.65937 5.31579 3.02642 4.94874 3.48608 4.74714C3.87007 4.57874 4.36067 4.57874 5.34185 4.57874H12.9731C13.9543 4.57874 14.4448 4.57874 14.8288 4.74714C15.2885 4.94874 15.6556 5.31579 15.8571 5.77545C16.0256 6.15944 16.0256 6.65003 16.0256 7.63122H2.28937Z" fill="#9F9F9F"/>
<path d="M5.34186 2.28937L5.34186 4.57873" stroke="#9F9F9F" stroke-linecap="round"/>
<path d="M12.9731 2.28937L12.9731 4.57873" stroke="#9F9F9F" stroke-linecap="round"/>
<rect x="5.34186" y="9.15747" width="3.05248" height="1.52624" rx="0.5" fill="#9F9F9F"/>
<rect x="5.34186" y="12.2099" width="3.05248" height="1.52624" rx="0.5" fill="#9F9F9F"/>
<rect x="9.92059" y="9.15747" width="3.05249" height="1.52624" rx="0.5" fill="#9F9F9F"/>
<rect x="9.92059" y="12.2099" width="3.05249" height="1.52624" rx="0.5" fill="#9F9F9F"/>
</svg>
