<svg width="19" height="19" viewBox="0 0 19 19" fill="none" xmlns="http://www.w3.org/2000/svg">
<path d="M11.7338 1.90924C11.3372 1.76654 10.8988 1.96571 10.7561 2.36253C10.6133 2.75859 10.8364 3.19739 11.233 3.34009C12.9607 3.96203 14.3249 5.35015 14.9294 7.08396C15.0681 7.4823 15.5091 7.67613 15.9071 7.53724C16.3051 7.39836 16.4989 6.98093 16.3602 6.58334C15.6042 4.41456 13.8946 2.68686 11.7338 1.90924Z" fill="#9F9F9F"/>
<path d="M4.97109 2.98101C3.40494 2.98101 1.53705 4.84913 1.53705 6.41505C1.53705 8.08018 3.09313 10.9754 4.80412 12.6871C4.96117 12.8436 5.41034 13.293 5.56724 13.4502C7.2783 15.1612 10.1738 16.7172 11.8392 16.7172C13.4053 16.7172 15.2732 14.849 15.2732 13.2831C15.2732 11.7172 13.4053 9.84909 11.8392 9.84909C11.5261 9.84909 11.2042 9.97348 10.5991 10.2543C10.5432 10.2803 10.078 10.5084 9.95517 10.5649C9.10307 10.3306 7.94931 9.16074 7.6897 8.27553C7.74838 8.14579 7.9774 7.70243 7.99976 7.65512C8.29249 7.03547 8.40513 6.73174 8.40513 6.41505C8.40513 4.84913 6.53724 2.98101 4.97109 2.98101ZM4.97109 4.50725C5.6943 4.50725 6.87889 5.69161 6.87889 6.41505C6.87889 6.39597 6.77686 6.67222 6.61653 7.01105C6.59501 7.05684 6.34134 7.54829 6.28274 7.67878C6.10256 8.08171 6.08059 8.20838 6.13958 8.48997C6.4597 10.017 8.27578 11.8416 9.78828 12.1148C10.0606 12.1636 10.1275 12.1392 10.5514 11.9477C10.6697 11.8942 11.1895 11.6623 11.243 11.6378C11.579 11.4814 11.8553 11.3753 11.8392 11.3753C12.5624 11.3753 13.747 12.5597 13.747 13.2831C13.747 14.0066 12.5624 15.1909 11.8392 15.1909C10.6475 15.1909 8.11598 13.8051 6.6643 12.3529C6.50725 12.1964 6.05807 11.747 5.90118 11.5898C4.44942 10.1383 3.06329 7.60704 3.06329 6.41505C3.06329 5.69161 4.24788 4.50725 4.97109 4.50725Z" fill="#9F9F9F"/>
<path d="M10.3925 4.90256C10.2107 4.97353 10.0716 5.11472 9.98715 5.30778C9.81812 5.69392 9.98257 6.14034 10.3687 6.30975C11.0846 6.62263 11.663 7.18733 11.9665 7.90772C12.1301 8.29538 12.5796 8.47625 12.968 8.31294C13.3565 8.14887 13.5371 7.72304 13.3734 7.33538C12.9181 6.25404 12.0628 5.37265 10.9887 4.90256C10.7957 4.81786 10.5744 4.83159 10.3925 4.90256Z" fill="#9F9F9F"/>
</svg>
